<svg width="75" height="26" viewBox="0 0 75 26" fill="none" xmlns="http://www.w3.org/2000/svg">
<g clip-path="url(#clip0_97_3090)">
<path d="M39.5416 11.4599L39.5208 9.95985V6.09206C40.0468 6.00051 40.58 5.95957 41.1135 5.96979C41.6401 5.95902 42.1665 5.99996 42.6854 6.09206V19.9291C41.6364 20.089 40.5698 20.089 39.5208 19.9291V15.6334L39.5416 14.1333L38.5468 14.1545H36.2386L35.2391 14.1333L35.2599 15.6334V19.9291C34.2117 20.089 33.1459 20.089 32.0977 19.9291V6.09206C33.1457 5.92905 34.2119 5.92905 35.2599 6.09206V9.95985L35.2391 11.4599L36.2386 11.4388H38.5468L39.5416 11.4599Z" fill="#0B43B2"/>
<path d="M53.4254 11.601V11.3659C53.4254 9.36734 52.6967 8.36806 51.2395 8.36806C50.8571 8.35126 50.4788 8.45367 50.155 8.66163C49.8313 8.86959 49.5775 9.1732 49.4276 9.53193C49.0567 10.3157 48.8713 11.4607 48.8713 12.9671C48.8713 14.4734 49.1021 15.5872 49.5638 16.3082C49.7765 16.6582 50.0772 16.9439 50.4347 17.1357C50.7922 17.3275 51.1936 17.4185 51.5973 17.3992C52.1264 17.3849 52.6484 17.2709 53.1368 17.0629C53.7941 16.7899 54.4146 16.4328 54.9834 16.0002C55.3423 16.2568 55.6547 16.575 55.9067 16.9407C56.1647 17.2773 56.3453 17.6686 56.4352 18.0857C56.1074 18.3991 55.7511 18.6802 55.3712 18.9251C54.956 19.1943 54.5161 19.4219 54.0578 19.6046C53.5797 19.7964 53.0872 19.949 52.5852 20.0608C52.0789 20.1751 51.5619 20.2327 51.0433 20.2324C50.1457 20.2612 49.2558 20.0556 48.4581 19.6352C47.7727 19.2531 47.1889 18.7068 46.757 18.0434C46.3104 17.3442 45.9921 16.5683 45.8176 15.7533C45.6243 14.8687 45.5283 13.965 45.5314 13.0588C45.5122 11.9802 45.6626 10.9054 45.9768 9.87521C46.2339 9.04257 46.6461 8.26822 47.1909 7.59451C47.6801 7.00375 48.2961 6.53554 48.9913 6.22608C49.6883 5.92134 50.4396 5.76684 51.198 5.7723C51.9335 5.76309 52.6658 5.8726 53.3677 6.09677C53.9704 6.28623 54.5332 6.58843 55.0272 6.98789C55.473 7.34649 55.8355 7.8009 56.089 8.31869C56.3345 8.83691 56.4601 9.40561 56.456 9.98101C56.456 11.1817 55.8528 11.7828 54.6464 11.7844C54.2333 11.7772 53.8229 11.7156 53.4254 11.601Z" fill="#0B43B2"/>
<path d="M59.0897 19.9291V6.09206C59.6149 6.00086 60.1473 5.95992 60.68 5.96979C61.2211 5.96009 61.762 6.00102 62.2957 6.09206V19.9291C61.7617 20.018 61.221 20.0581 60.68 20.049C60.1474 20.0583 59.6151 20.0182 59.0897 19.9291Z" fill="#0B43B2"/>
<path d="M64.7378 18.7323C64.7847 18.2648 64.9228 17.8115 65.144 17.3992C65.3517 16.9858 65.6318 16.6144 65.9704 16.3035C67.3891 17.1828 68.7348 17.6217 70.0074 17.6202C70.566 17.6202 70.9722 17.4932 71.2307 17.2369C71.3554 17.1157 71.4541 16.9697 71.5208 16.8078C71.5876 16.646 71.6208 16.4719 71.6185 16.2964C71.6185 15.6616 71.2007 15.1616 70.3652 14.7963L68.02 13.783C67.2157 13.4453 66.4951 12.9297 65.9104 12.2735C65.4057 11.6435 65.1439 10.8476 65.174 10.0351C65.1668 9.44624 65.2932 8.86367 65.5433 8.33278C65.7896 7.81692 66.1423 7.36135 66.5774 6.99728C67.0455 6.60442 67.5818 6.30454 68.1585 6.11321C68.8135 5.89632 69.4988 5.7899 70.1874 5.79814C71.7535 5.81912 73.2929 6.21456 74.6815 6.9526C74.6138 7.99498 74.256 8.80538 73.6082 9.38378C72.2556 8.7223 71.0622 8.39156 70.0282 8.39156C69.5998 8.35866 69.1747 8.48849 68.8348 8.756C68.7128 8.85672 68.6138 8.9834 68.5448 9.12717C68.4758 9.27095 68.4385 9.42834 68.4355 9.58834C68.4355 10.115 68.8271 10.5398 69.6104 10.8627L71.9971 11.8973C72.8805 12.2374 73.6594 12.8102 74.2545 13.5572C74.7516 14.2353 75.0138 15.0623 75 15.9085C75.0046 16.5012 74.8899 17.0885 74.663 17.6343C74.4351 18.1631 74.0908 18.6313 73.6566 19.0027C73.1672 19.4115 72.6032 19.7176 71.9971 19.9032C71.2425 20.1327 70.4577 20.2421 69.6704 20.2277C67.9194 20.222 66.207 19.7028 64.7378 18.7323Z" fill="#0B43B2"/>
<path d="M1.9828e-06 9.16981C-0.00152148 8.80944 0.0669589 8.45232 0.201499 8.11902C0.336039 7.78572 0.533981 7.48283 0.783925 7.22779C1.03387 6.97274 1.33088 6.77059 1.65784 6.63297C1.9848 6.49535 2.33527 6.42498 2.68904 6.42591H11.691V9.16981C11.691 9.52919 11.6214 9.88505 11.4862 10.217C11.3509 10.5489 11.1528 10.8504 10.903 11.1042C10.6532 11.358 10.3567 11.5591 10.0305 11.696C9.70426 11.8329 9.35474 11.9029 9.00194 11.9019H2.68904C2.33624 11.9029 1.98672 11.8329 1.66051 11.696C1.33431 11.5591 1.03781 11.358 0.788022 11.1042C0.538231 10.8504 0.340048 10.5489 0.204826 10.217C0.0696046 9.88505 8.06995e-07 9.52919 1.9828e-06 9.16981Z" fill="#004FB8"/>
<path d="M9.00194 -5.18274e-06C9.35475 -6.38047e-06 9.70408 0.0708956 10.0299 0.208639C10.3558 0.346383 10.6518 0.548262 10.9009 0.802712C11.1501 1.05716 11.3475 1.35918 11.4819 1.69148C11.6163 2.02377 11.685 2.37981 11.6841 2.73919V9.16983C11.6841 9.89443 11.4015 10.5894 10.8985 11.1017C10.3955 11.6141 9.71328 11.902 9.00194 11.902H3.61232C4.32494 11.902 5.00858 11.6146 5.51378 11.1026C6.01897 10.5906 6.30462 9.89573 6.30829 9.16983V2.73919C6.30737 2.37881 6.37645 2.02182 6.51155 1.68875C6.64665 1.35569 6.8451 1.05314 7.09548 0.798538C7.34585 0.543933 7.6432 0.3423 7.97039 0.20525C8.29759 0.0682005 8.64817 -0.00155706 9.00194 -5.18274e-06Z" fill="url(#paint0_linear_97_3090)"/>
<path d="M2.40975 4.65781C3.60422 4.65781 4.57253 3.67144 4.57253 2.4547C4.57253 1.23795 3.60422 0.251587 2.40975 0.251587C1.21529 0.251587 0.246979 1.23795 0.246979 2.4547C0.246979 3.67144 1.21529 4.65781 2.40975 4.65781Z" fill="#004FB8"/>
<path d="M25.524 16.8349C25.5249 17.1948 25.4559 17.5515 25.3211 17.8842C25.1863 18.217 24.9883 18.5193 24.7384 18.7738C24.4885 19.0284 24.1917 19.2301 23.865 19.3674C23.5384 19.5048 23.1883 19.575 22.8349 19.5741H13.8491V16.8349C13.851 16.1121 14.1336 15.4194 14.6354 14.9083C15.1371 14.3972 15.8171 14.1093 16.5266 14.1074H22.8349C23.5465 14.1062 24.2294 14.3928 24.7336 14.9042C25.2379 15.4156 25.5221 16.11 25.524 16.8349Z" fill="#820003"/>
<path d="M16.5266 26C15.8151 25.9981 15.1334 25.7085 14.6313 25.1949C14.1292 24.6813 13.8479 23.9856 13.8491 23.2608V16.8349C13.851 16.1121 14.1336 15.4194 14.6354 14.9083C15.1371 14.3972 15.8171 14.1093 16.5266 14.1074H21.9093C21.1967 14.108 20.5133 14.396 20.0086 14.9084C19.5038 15.4209 19.2187 16.116 19.2157 16.8419V23.2608C19.2166 23.6208 19.1477 23.9774 19.0128 24.3101C18.878 24.6429 18.68 24.9452 18.4301 25.1998C18.1802 25.4543 17.8834 25.656 17.5568 25.7934C17.2301 25.9307 16.88 26.0009 16.5266 26Z" fill="url(#paint1_linear_97_3090)"/>
<path d="M23.1119 25.7461C24.3064 25.7461 25.2747 24.7597 25.2747 23.543C25.2747 22.3262 24.3064 21.3398 23.1119 21.3398C21.9174 21.3398 20.9491 22.3262 20.9491 23.543C20.9491 24.7597 21.9174 25.7461 23.1119 25.7461Z" fill="#820003"/>
<path d="M16.5266 4.05074e-06C16.8799 -0.000615383 17.2299 0.0698131 17.5564 0.207251C17.8829 0.344689 18.1796 0.546433 18.4294 0.800914C18.6793 1.05539 18.8773 1.35761 19.0122 1.69022C19.1471 2.02283 19.2163 2.37931 19.2157 2.7392V11.909H16.5266C16.1742 11.9084 15.8254 11.8371 15.5001 11.699C15.1747 11.561 14.8793 11.359 14.6306 11.1046C14.382 10.8503 14.185 10.5484 14.0509 10.2165C13.9168 9.88447 13.8482 9.52882 13.8491 9.16984V2.7392C13.8479 2.01437 14.1292 1.3187 14.6313 0.805071C15.1334 0.29144 15.8151 0.00187269 16.5266 4.05074e-06Z" fill="#F55C00"/>
<path d="M25.524 9.16983C25.524 9.52921 25.4544 9.88507 25.3191 10.217C25.1839 10.5489 24.9857 10.8504 24.7359 11.1042C24.4862 11.358 24.1897 11.5591 23.8635 11.696C23.5372 11.8329 23.1877 11.9029 22.8349 11.902H16.5266C15.8161 11.9007 15.1351 11.6123 14.6331 11.1001C14.1311 10.5878 13.8491 9.89363 13.8491 9.16983V3.67969C13.8491 4.40601 14.1316 5.10275 14.6347 5.61743C15.1378 6.13212 15.8205 6.42283 16.5336 6.42593H22.8349C23.1887 6.425 23.5392 6.49537 23.8661 6.63299C24.1931 6.77061 24.4901 6.97277 24.74 7.22781C24.99 7.48285 25.1879 7.78574 25.3225 8.11904C25.457 8.45234 25.5255 8.80946 25.524 9.16983Z" fill="url(#paint2_linear_97_3090)"/>
<path d="M23.1119 4.65781C24.3064 4.65781 25.2747 3.67144 25.2747 2.4547C25.2747 1.23795 24.3064 0.251587 23.1119 0.251587C21.9174 0.251587 20.9491 1.23795 20.9491 2.4547C20.9491 3.67144 21.9174 4.65781 23.1119 4.65781Z" fill="#F55C00"/>
<path d="M9.00194 26C8.64817 26.0015 8.29759 25.9318 7.97039 25.7947C7.64319 25.6577 7.34585 25.456 7.09547 25.2014C6.8451 24.9468 6.64665 24.6443 6.51155 24.3112C6.37645 23.9782 6.30737 23.6212 6.30828 23.2608V14.1074H9.00194C9.71248 14.1074 10.394 14.3946 10.8969 14.906C11.3997 15.4173 11.6828 16.1111 11.6841 16.8349V23.2608C11.685 23.6202 11.6163 23.9762 11.4819 24.3085C11.3475 24.6408 11.1501 24.9428 10.9009 25.1973C10.6518 25.4517 10.3558 25.6536 10.0299 25.7913C9.70408 25.9291 9.35474 26 9.00194 26Z" fill="#1C602D"/>
<path d="M3.97658e-06 16.8349C0.0018384 16.11 0.286104 15.4156 0.790331 14.9042C1.29456 14.3928 1.97749 14.1062 2.68904 14.1074H9.00194C9.71249 14.1074 10.394 14.3946 10.8969 14.906C11.3997 15.4173 11.6828 16.1111 11.6841 16.8349V22.318C11.6835 21.5924 11.4011 20.8967 10.8985 20.3826C10.396 19.8684 9.71416 19.5778 9.00194 19.5741H2.68904C2.33574 19.5747 1.9858 19.5042 1.65927 19.3668C1.33275 19.2294 1.03607 19.0276 0.78625 18.7731C0.536428 18.5187 0.338378 18.2165 0.203456 17.8838C0.0685349 17.5512 -0.000604115 17.1948 3.97658e-06 16.8349Z" fill="url(#paint3_linear_97_3090)"/>
<path d="M2.40975 25.7461C3.60422 25.7461 4.57253 24.7597 4.57253 23.543C4.57253 22.3262 3.60422 21.3398 2.40975 21.3398C1.21529 21.3398 0.246979 22.3262 0.246979 23.543C0.246979 24.7597 1.21529 25.7461 2.40975 25.7461Z" fill="#1C602D"/>
</g>
<defs>
<linearGradient id="paint0_linear_97_3090" x1="3.38291" y1="11.6693" x2="12.6435" y2="2.57818" gradientUnits="userSpaceOnUse">
<stop stop-color="#00C6FF"/>
<stop offset="1" stop-color="#0035FF"/>
</linearGradient>
<linearGradient id="paint1_linear_97_3090" x1="13.0468" y1="23.5916" x2="22.3074" y2="14.5005" gradientUnits="userSpaceOnUse">
<stop stop-color="#FF0420"/>
<stop offset="1" stop-color="#8B0C16"/>
</linearGradient>
<linearGradient id="paint2_linear_97_3090" x1="16.2441" y1="8.14128" x2="23.6555" y2="7.00751" gradientUnits="userSpaceOnUse">
<stop stop-color="#FFB500"/>
<stop offset="1" stop-color="#FF6C00"/>
</linearGradient>
<linearGradient id="paint3_linear_97_3090" x1="14.5957" y1="15.859" x2="2.6692" y2="19.4059" gradientUnits="userSpaceOnUse">
<stop stop-color="#FFDC00"/>
<stop offset="1" stop-color="#00B81B"/>
</linearGradient>
<clipPath id="clip0_97_3090">
<rect width="75" height="26" fill="white"/>
</clipPath>
</defs>
</svg>
