<svg width="70" height="22" viewBox="0 0 70 22" fill="none" xmlns="http://www.w3.org/2000/svg">
<path fill-rule="evenodd" clip-rule="evenodd" d="M36.4328 17.567H35.3078V18.888H36.8538L37.5218 20.775H39.2438L36.1868 12.435H35.2728V14.095L36.4328 17.567ZM35.3088 17.567H34.1488L35.2728 14.135H35.3078V12.475H34.4288L31.4078 20.813H33.0238L33.6918 18.926H35.2728V17.567H35.3088Z" fill="#00539F"/>
<path fill-rule="evenodd" clip-rule="evenodd" d="M44.9728 14.02C44.4781 13.7847 43.9394 13.6562 43.3918 13.643C43.2304 13.6217 43.0663 13.6368 42.9115 13.6872C42.7567 13.7376 42.6152 13.822 42.4973 13.9342C42.3793 14.0463 42.288 14.1835 42.2299 14.3356C42.1719 14.4876 42.1486 14.6508 42.1618 14.813C42.1618 16.247 45.5708 15.643 45.5708 18.436C45.5708 20.285 44.2358 20.964 42.6538 20.964C41.9846 20.9488 41.3213 20.8343 40.6858 20.624L40.8268 19.114C41.3631 19.4198 41.9666 19.5885 42.5838 19.605C43.1838 19.605 43.9898 19.265 43.9898 18.548C43.9898 16.963 40.5808 17.605 40.5808 14.848C40.5625 14.4941 40.6212 14.1404 40.7527 13.8113C40.8842 13.4822 41.0855 13.1855 41.3426 12.9416C41.5998 12.6978 41.9068 12.5125 42.2424 12.3986C42.578 12.2848 42.9343 12.245 43.2868 12.282C43.9195 12.2811 44.5483 12.3824 45.1488 12.582L44.9728 14.02Z" fill="#00539F"/>
<path fill-rule="evenodd" clip-rule="evenodd" d="M49.0488 13.794H46.8348V12.473H52.8438V13.794H50.5948V20.813H49.0488V13.794Z" fill="#00539F"/>
<path fill-rule="evenodd" clip-rule="evenodd" d="M56.9908 13.832C57.5908 13.907 58.0798 14.132 58.0798 14.889C58.0798 15.646 57.5878 15.908 56.9908 16.021V17.455C57.1191 17.5415 57.2288 17.6529 57.3133 17.7826C57.3978 17.9123 57.4554 18.0576 57.4828 18.21L58.4318 20.81H60.1548L58.8898 17.565C58.7488 17.188 58.5028 16.735 58.0818 16.697C58.5445 16.6242 58.9644 16.3843 59.2622 16.0228C59.56 15.6612 59.715 15.2031 59.6978 14.735C59.6978 12.886 58.3628 12.546 56.9568 12.508V13.829L56.9908 13.832ZM55.9018 13.794H56.4288C56.6169 13.7879 56.8052 13.8006 56.9908 13.832V12.511H54.3548V20.851H55.9008V17.379H56.4278C56.6216 17.369 56.8149 17.4079 56.9898 17.492V16.058C56.8138 16.058 56.6028 16.096 56.4278 16.096H55.9008L55.9018 13.794Z" fill="#00539F"/>
<path fill-rule="evenodd" clip-rule="evenodd" d="M66.1618 17.567H65.0368V18.888H66.5828L67.2508 20.775H68.9718L65.9498 12.435H65.0358V14.095L66.1618 17.567ZM65.0368 17.567H63.9128L65.0368 14.133H65.0718V12.473H64.1928L61.1708 20.813H62.7868L63.4548 18.926H65.0358L65.0368 17.567Z" fill="#00539F"/>
<path fill-rule="evenodd" clip-rule="evenodd" d="M40.974 3.774C39.041 3.925 35.316 4.529 32.294 5.095C29.272 5.661 27.761 6.076 26.494 6.34C23.12 7.246 18.025 8.755 15.319 9.699C12.929 10.529 6.674 13.322 6.499 13.284C6.358 13.246 6.183 13.02 6.499 12.793C5.866 13.246 15.706 3.925 31.835 1.585V0H0V18.529C9.839 14.302 20.592 12.642 31.837 12.642V8.189L32.118 8.076C38.549 5.476 46.034 4.453 58.192 3.057V2.642C52.4957 2.72847 46.8076 3.1063 41.15 3.774H40.974Z" fill="#00539F"/>
<path fill-rule="evenodd" clip-rule="evenodd" d="M57.7988 2.321C52.0894 1.89206 46.3549 1.91847 40.6498 2.4C37.6978 2.626 34.4998 3.117 31.5838 3.645C25.3288 4.815 20.1278 6.245 20.1278 6.245C20.1278 6.245 19.7408 6.245 20.0928 5.981C23.7391 4.17717 27.6006 2.84577 31.5838 2.019C32.9568 1.755 34.3568 1.491 35.9058 1.3C36.1168 1.262 35.9058 1 35.9058 1C34.4298 1.113 32.9188 1.189 31.5488 1.415C25.5795 2.33466 19.8066 4.24816 14.4698 7.076C14.2588 7.227 15.0698 6.661 10.2528 9.491C10.2528 9.491 7.23077 11.642 7.01977 11.906C6.73877 12.246 9.51477 10.925 11.4478 10.17C13.2748 9.453 18.1598 7.981 19.2838 7.604C20.0918 7.34 22.8678 6.698 25.7148 6.094C28.4908 5.494 31.0558 5.113 31.1968 5.113C31.4078 5.075 31.3728 5.113 31.3728 5.113C31.3728 5.113 34.3598 4.585 34.9218 4.471C35.8358 4.282 40.7548 3.641 40.8218 3.641C49.3958 2.622 57.9358 2.547 57.7948 2.547L57.7988 2.321Z" fill="#ABB5D9"/>
</svg>
